<mxfile host="app.diagrams.net" agent="Mozilla/5.0 (Windows NT 10.0; Win64; x64) AppleWebKit/537.36 (KHTML, like Gecko) Chrome/132.0.0.0 Safari/537.36 Edg/132.0.0.0" version="26.0.10">
  <diagram name="Page-1" id="S1E6LGlzcRuocv7YNUm-">
    <mxGraphModel dx="1226" dy="665" grid="1" gridSize="10" guides="1" tooltips="1" connect="1" arrows="1" fold="1" page="1" pageScale="1" pageWidth="850" pageHeight="1100" math="0" shadow="0">
      <root>
        <mxCell id="0" />
        <mxCell id="1" parent="0" />
        <mxCell id="GumRoZm9DYS1ClUNUrSQ-1" value="&lt;font style=&quot;font-size: 24px;&quot;&gt;Master AI&lt;/font&gt;" style="rounded=1;whiteSpace=wrap;html=1;" vertex="1" parent="1">
          <mxGeometry x="360" y="40" width="120" height="60" as="geometry" />
        </mxCell>
        <mxCell id="GumRoZm9DYS1ClUNUrSQ-2" value="" style="endArrow=classic;html=1;rounded=0;exitX=0;exitY=1;exitDx=0;exitDy=0;entryX=1;entryY=0;entryDx=0;entryDy=0;" edge="1" parent="1" target="GumRoZm9DYS1ClUNUrSQ-3">
          <mxGeometry width="50" height="50" relative="1" as="geometry">
            <mxPoint x="360" y="90" as="sourcePoint" />
            <mxPoint x="129.96000000000004" y="187.17999999999995" as="targetPoint" />
          </mxGeometry>
        </mxCell>
        <mxCell id="GumRoZm9DYS1ClUNUrSQ-3" value="&lt;font style=&quot;font-size: 18px;&quot;&gt;Talking Agent&lt;/font&gt;" style="rounded=1;whiteSpace=wrap;html=1;" vertex="1" parent="1">
          <mxGeometry x="60" y="200" width="120" height="60" as="geometry" />
        </mxCell>
        <mxCell id="GumRoZm9DYS1ClUNUrSQ-4" value="" style="endArrow=classic;html=1;rounded=0;exitX=0.25;exitY=1;exitDx=0;exitDy=0;" edge="1" parent="1" source="GumRoZm9DYS1ClUNUrSQ-1">
          <mxGeometry width="50" height="50" relative="1" as="geometry">
            <mxPoint x="425" y="110" as="sourcePoint" />
            <mxPoint x="200" y="340" as="targetPoint" />
          </mxGeometry>
        </mxCell>
        <mxCell id="GumRoZm9DYS1ClUNUrSQ-5" value="&lt;font style=&quot;font-size: 18px;&quot;&gt;Reminder AI&lt;/font&gt;" style="rounded=1;whiteSpace=wrap;html=1;" vertex="1" parent="1">
          <mxGeometry x="130" y="350" width="120" height="60" as="geometry" />
        </mxCell>
        <mxCell id="GumRoZm9DYS1ClUNUrSQ-6" value="&lt;font style=&quot;font-size: 18px;&quot;&gt;Smart Storage&lt;/font&gt;" style="rounded=1;whiteSpace=wrap;html=1;" vertex="1" parent="1">
          <mxGeometry x="360" y="480" width="120" height="60" as="geometry" />
        </mxCell>
        <mxCell id="GumRoZm9DYS1ClUNUrSQ-7" value="" style="endArrow=classic;html=1;rounded=0;exitX=0.5;exitY=1;exitDx=0;exitDy=0;" edge="1" parent="1">
          <mxGeometry width="50" height="50" relative="1" as="geometry">
            <mxPoint x="419.5" y="100" as="sourcePoint" />
            <mxPoint x="419.5" y="470" as="targetPoint" />
          </mxGeometry>
        </mxCell>
        <mxCell id="GumRoZm9DYS1ClUNUrSQ-8" value="&lt;font style=&quot;font-size: 18px;&quot;&gt;Health AI&lt;/font&gt;" style="rounded=1;whiteSpace=wrap;html=1;" vertex="1" parent="1">
          <mxGeometry x="540" y="350" width="120" height="60" as="geometry" />
        </mxCell>
        <mxCell id="GumRoZm9DYS1ClUNUrSQ-9" value="" style="endArrow=classic;html=1;rounded=0;exitX=0.25;exitY=1;exitDx=0;exitDy=0;" edge="1" parent="1">
          <mxGeometry width="50" height="50" relative="1" as="geometry">
            <mxPoint x="455" y="100" as="sourcePoint" />
            <mxPoint x="580" y="350" as="targetPoint" />
          </mxGeometry>
        </mxCell>
        <mxCell id="GumRoZm9DYS1ClUNUrSQ-10" value="&lt;font style=&quot;font-size: 14px;&quot;&gt;Users Sentiment Analyser&lt;/font&gt;" style="rounded=1;whiteSpace=wrap;html=1;" vertex="1" parent="1">
          <mxGeometry x="710" y="160" width="120" height="60" as="geometry" />
        </mxCell>
        <mxCell id="GumRoZm9DYS1ClUNUrSQ-12" value="" style="endArrow=classic;html=1;rounded=0;exitX=1;exitY=1;exitDx=0;exitDy=0;entryX=0;entryY=0;entryDx=0;entryDy=0;" edge="1" parent="1" source="GumRoZm9DYS1ClUNUrSQ-1" target="GumRoZm9DYS1ClUNUrSQ-10">
          <mxGeometry width="50" height="50" relative="1" as="geometry">
            <mxPoint x="890" y="100" as="sourcePoint" />
            <mxPoint x="710" y="210" as="targetPoint" />
          </mxGeometry>
        </mxCell>
        <mxCell id="GumRoZm9DYS1ClUNUrSQ-13" value="&lt;font style=&quot;font-size: 18px;&quot;&gt;Web Crawler&lt;/font&gt;" style="rounded=1;whiteSpace=wrap;html=1;" vertex="1" parent="1">
          <mxGeometry x="680" y="40" width="120" height="60" as="geometry" />
        </mxCell>
        <mxCell id="GumRoZm9DYS1ClUNUrSQ-14" value="" style="endArrow=classic;html=1;rounded=0;exitX=1;exitY=1;exitDx=0;exitDy=0;entryX=0;entryY=0.5;entryDx=0;entryDy=0;" edge="1" parent="1" target="GumRoZm9DYS1ClUNUrSQ-13">
          <mxGeometry width="50" height="50" relative="1" as="geometry">
            <mxPoint x="480" y="70" as="sourcePoint" />
            <mxPoint x="670" y="180" as="targetPoint" />
          </mxGeometry>
        </mxCell>
        <mxCell id="GumRoZm9DYS1ClUNUrSQ-15" value="&lt;span style=&quot;font-size: 14px;&quot;&gt;Communication AI&lt;/span&gt;" style="rounded=1;whiteSpace=wrap;html=1;" vertex="1" parent="1">
          <mxGeometry x="780" y="340" width="120" height="60" as="geometry" />
        </mxCell>
        <mxCell id="GumRoZm9DYS1ClUNUrSQ-16" value="" style="endArrow=classic;html=1;rounded=0;exitX=0.923;exitY=1.073;exitDx=0;exitDy=0;entryX=0;entryY=0;entryDx=0;entryDy=0;exitPerimeter=0;" edge="1" parent="1" source="GumRoZm9DYS1ClUNUrSQ-1" target="GumRoZm9DYS1ClUNUrSQ-15">
          <mxGeometry width="50" height="50" relative="1" as="geometry">
            <mxPoint x="465" y="110" as="sourcePoint" />
            <mxPoint x="590" y="360" as="targetPoint" />
          </mxGeometry>
        </mxCell>
        <mxCell id="GumRoZm9DYS1ClUNUrSQ-17" value="&lt;font style=&quot;font-size: 14px;&quot;&gt;&amp;nbsp;Face Expression Analyser&lt;/font&gt;" style="rounded=1;whiteSpace=wrap;html=1;" vertex="1" parent="1">
          <mxGeometry x="850" y="490" width="120" height="60" as="geometry" />
        </mxCell>
        <mxCell id="GumRoZm9DYS1ClUNUrSQ-18" value="" style="endArrow=classic;html=1;rounded=0;entryX=0.425;entryY=-0.07;entryDx=0;entryDy=0;entryPerimeter=0;" edge="1" parent="1" target="GumRoZm9DYS1ClUNUrSQ-17">
          <mxGeometry width="50" height="50" relative="1" as="geometry">
            <mxPoint x="850" y="400" as="sourcePoint" />
            <mxPoint x="900" y="350" as="targetPoint" />
          </mxGeometry>
        </mxCell>
        <mxCell id="GumRoZm9DYS1ClUNUrSQ-19" value="" style="endArrow=classic;html=1;rounded=0;" edge="1" parent="1">
          <mxGeometry width="50" height="50" relative="1" as="geometry">
            <mxPoint x="900" y="370" as="sourcePoint" />
            <mxPoint x="960" y="390" as="targetPoint" />
          </mxGeometry>
        </mxCell>
        <mxCell id="GumRoZm9DYS1ClUNUrSQ-20" value="&lt;span style=&quot;font-size: 14px;&quot;&gt;Autonoumsly Text Reply&lt;/span&gt;" style="rounded=1;whiteSpace=wrap;html=1;" vertex="1" parent="1">
          <mxGeometry x="960" y="360" width="120" height="60" as="geometry" />
        </mxCell>
        <mxCell id="GumRoZm9DYS1ClUNUrSQ-21" value="&lt;font style=&quot;font-size: 12px;&quot;&gt;Manage Calendar, Set Alarms&lt;/font&gt;" style="rounded=1;whiteSpace=wrap;html=1;" vertex="1" parent="1">
          <mxGeometry x="10" y="460" width="120" height="60" as="geometry" />
        </mxCell>
        <mxCell id="GumRoZm9DYS1ClUNUrSQ-22" value="" style="endArrow=classic;html=1;rounded=0;entryX=0.583;entryY=0;entryDx=0;entryDy=0;entryPerimeter=0;" edge="1" parent="1" target="GumRoZm9DYS1ClUNUrSQ-21">
          <mxGeometry width="50" height="50" relative="1" as="geometry">
            <mxPoint x="165" y="410" as="sourcePoint" />
            <mxPoint x="215" y="360" as="targetPoint" />
          </mxGeometry>
        </mxCell>
      </root>
    </mxGraphModel>
  </diagram>
</mxfile>
